<?xml version="1.0" encoding="UTF-8" standalone="no"?>
<svg
   xmlns:dc="http://purl.org/dc/elements/1.1/"
   xmlns:cc="http://creativecommons.org/ns#"
   xmlns:rdf="http://www.w3.org/1999/02/22-rdf-syntax-ns#"
   xmlns:svg="http://www.w3.org/2000/svg"
   xmlns="http://www.w3.org/2000/svg"
   xmlns:xlink="http://www.w3.org/1999/xlink"
   xmlns:sodipodi="http://sodipodi.sourceforge.net/DTD/sodipodi-0.dtd"
   xmlns:inkscape="http://www.inkscape.org/namespaces/inkscape"
   inkscape:version="1.0 (4035a4fb49, 2020-05-01)"
   height="1000"
   width="1000"
   sodipodi:docname="WhatsWhere_SK-01.svg"
   version="1.1"
   viewBox="0 0 1000 1000"
   data-name="Layer 1"
   id="Layer_1">
  <metadata
     id="metadata42">
    <rdf:RDF>
      <cc:Work
         rdf:about="">
        <dc:format>image/svg+xml</dc:format>
        <dc:type
           rdf:resource="http://purl.org/dc/dcmitype/StillImage" />
        <dc:title>WhatsWhere_SK</dc:title>
      </cc:Work>
    </rdf:RDF>
  </metadata>
  <sodipodi:namedview
     inkscape:current-layer="Layer_1"
     inkscape:window-maximized="1"
     inkscape:window-y="-8"
     inkscape:window-x="-8"
     inkscape:cy="332.82"
     inkscape:cx="467.47"
     inkscape:zoom="0.425"
     lock-margins="false"
     fit-margin-bottom="0"
     fit-margin-right="0"
     fit-margin-left="0"
     fit-margin-top="0"
     showgrid="false"
     id="namedview40"
     inkscape:window-height="1017"
     inkscape:window-width="1920"
     inkscape:pageshadow="2"
     inkscape:pageopacity="0"
     guidetolerance="10"
     gridtolerance="10"
     objecttolerance="10"
     borderopacity="1"
     bordercolor="#666666"
     pagecolor="#ffffff" />
  <defs
     id="defs9">
    <linearGradient
       gradientUnits="userSpaceOnUse"
       y2="1016.46"
       x2="1176.45"
       y1="1016.46"
       x1="809.09003"
       id="linear-gradient">
      <stop
         id="stop2"
         stop-color="#8cc63f"
         offset="0" />
      <stop
         id="stop4"
         stop-color="#006837"
         offset="1" />
    </linearGradient>
    <linearGradient
       gradientTransform="translate(-499.98004,-500.00156)"
       xlink:href="#linear-gradient"
       y2="737.35999"
       x2="1176.45"
       y1="737.35999"
       x1="809.09003"
       id="linear-gradient-2" />
    <linearGradient
       gradientTransform="translate(-499.98004,-500.00156)"
       xlink:href="#linear-gradient"
       y2="771.65002"
       x2="1176.45"
       y1="771.65002"
       x1="809.09003"
       id="linear-gradient-3" />
    <linearGradient
       gradientTransform="translate(-499.98004,-500.00156)"
       y2="1016.46"
       x2="1176.45"
       y1="1016.46"
       x1="809.09003"
       gradientUnits="userSpaceOnUse"
       id="linearGradient867"
       xlink:href="#linear-gradient"
       inkscape:collect="always" />
  </defs>
  <title
     id="title11">WhatsWhere_SK</title>
  <path
     id="path13"
     style="fill:#333333"
     d="m 83.869955,723.45844 h 13 l 14.360005,37.72 14.51,-37.72 h 13 l -18.79,47.19 18.63,44.76 36.66,-92.56 h 15 l -45.42,108.44 h -11.92 l -21.53,-51.16 -21.690005,51.16 h -11.92 l -45.21,-108.44 h 14.82 l 36.81,92.56 18.480005,-44.76 z" />
  <path
     id="path15"
     style="fill:#333333"
     d="m 271.43996,831.28844 h -13.42 v -44.6 q 0,-12.36 -4.28,-18.4 -4.28,-6.04 -12.52,-6 a 21,21 0 0 0 -7.94,1.61 29.54,29.54 0 0 0 -7.41,4.35 31.46,31.46 0 0 0 -6.11,6.57 29.15,29.15 0 0 0 -4.05,8.4 v 48.11 h -13.46 v -111.5 h 13.44 v 48.88 a 35,35 0 0 1 12.83,-13.59 33.63,33.63 0 0 1 17.72,-4.89 25.13,25.13 0 0 1 11.91,2.59 20.84,20.84 0 0 1 7.79,7 30.51,30.51 0 0 1 4.2,10.62 63.92,63.92 0 0 1 1.3,13.21 z" />
  <path
     id="path17"
     style="fill:#333333"
     d="m 312.82996,832.81844 a 28.51,28.51 0 0 1 -10.53,-1.91 26.13,26.13 0 0 1 -8.48,-5.27 24.64,24.64 0 0 1 -5.65,-7.86 23.35,23.35 0 0 1 -2.07,-9.86 20.62,20.62 0 0 1 2.45,-10 22.73,22.73 0 0 1 7,-7.71 35.74,35.74 0 0 1 10.69,-5 47.12,47.12 0 0 1 13.52,-1.84 66.71,66.71 0 0 1 11.76,1.07 55.05,55.05 0 0 1 10.54,2.9 v -6.41 q 0,-9.78 -5.5,-15.35 -5.5,-5.57 -15.63,-5.58 -12.07,0 -25.36,9.32 l -4.43,-8.71 q 15.43,-10.38 31,-10.38 15.74,0 24.52,8.4 8.78,8.4 8.78,23.67 v 32.54 c 0,3.16 1.42,4.79 4.28,4.89 v 11.6 c -1.43,0.21 -2.6,0.36 -3.52,0.46 a 26.55,26.55 0 0 1 -2.9,0.16 8.56,8.56 0 0 1 -6.34,-2.37 9.71,9.71 0 0 1 -2.82,-5.73 l -0.31,-5.65 a 34.38,34.38 0 0 1 -13.52,10.92 41.56,41.56 0 0 1 -17.48,3.7 z m 3.52,-10.08 a 33.34,33.34 0 0 0 13.36,-2.67 22,22 0 0 0 9.4,-7.1 c 1.93,-1.94 2.9,-3.92 2.9,-6 v -11.76 a 55.29,55.29 0 0 0 -20.32,-3.82 q -10.08,0 -16.42,4.28 -6.34,4.28 -6.34,11.15 a 15.26,15.26 0 0 0 1.3,6.26 15.09,15.09 0 0 0 3.67,5 17.45,17.45 0 0 0 5.57,3.36 19.26,19.26 0 0 0 6.88,1.3 z" />
  <path
     id="path19"
     style="fill:#333333"
     d="m 417.60996,827.31844 c -0.81,0.41 -1.88,0.9 -3.2,1.45 -1.32,0.55 -2.83,1.13 -4.51,1.68 a 38.41,38.41 0 0 1 -5.5,1.38 34.5,34.5 0 0 1 -6.18,0.53 20.38,20.38 0 0 1 -12.68,-4 q -5.35,-4 -5.35,-12.61 v -53.65 h -10.84 v -10.54 h 10.84 v -26.56 h 13.44 v 26.58 h 17.88 v 10.54 h -17.88 v 49.49 c 0.21,3 1.17,5.09 2.91,6.42 a 9.77,9.77 0 0 0 6.11,2 19.48,19.48 0 0 0 7.25,-1.3 31.27,31.27 0 0 0 4.51,-2.06 z" />
  <path
     id="path21"
     style="fill:#333333"
     d="m 458.08996,832.81844 a 61.74,61.74 0 0 1 -18.94,-3 46.57,46.57 0 0 1 -16,-8.63 l 5.81,-9 a 56.14,56.14 0 0 0 14.05,8 41.33,41.33 0 0 0 14.82,2.67 q 8.7,0 13.82,-3.43 a 11,11 0 0 0 5.12,-9.7 8.74,8.74 0 0 0 -1.38,-5 11.67,11.67 0 0 0 -4.12,-3.59 34.7,34.7 0 0 0 -7,-2.75 q -4.27,-1.21 -9.93,-2.59 -7.18,-1.83 -12.37,-3.51 a 33.43,33.43 0 0 1 -8.55,-4 13.87,13.87 0 0 1 -4.89,-5.5 18.34,18.34 0 0 1 -1.53,-7.94 23,23 0 0 1 2.37,-10.61 22.28,22.28 0 0 1 6.49,-7.79 29.17,29.17 0 0 1 9.7,-4.74 43.17,43.17 0 0 1 12,-1.6 47.82,47.82 0 0 1 16.8,2.9 41.38,41.38 0 0 1 13.14,7.64 l -6.11,8.09 a 34.27,34.27 0 0 0 -11.3,-6.64 38.2,38.2 0 0 0 -12.84,-2.22 23.47,23.47 0 0 0 -12.44,3.13 q -5.13,3.14 -5.12,10 a 9.55,9.55 0 0 0 1,4.58 8.68,8.68 0 0 0 3.29,3.21 25.34,25.34 0 0 0 5.88,2.44 q 3.59,1.08 8.63,2.29 c 5.29,1.23 9.9,2.47 13.82,3.75 a 39.83,39.83 0 0 1 9.78,4.5 17.58,17.58 0 0 1 5.8,6.11 17.78,17.78 0 0 1 1.91,8.56 q 0,11.14 -8.56,17.71 -8.56,6.57 -23.15,6.66 z" />
  <path
     id="path23"
     style="fill:#333333"
     d="m 539.80996,723.45844 h 13 l 14.36,37.72 14.51,-37.72 h 13 l -18.78,47.19 18.63,44.76 36.66,-92.56 h 15 l -45.37,108.44 h -11.91 l -21.54,-51.16 -21.69,51.16 h -11.91 l -45.21,-108.44 h 14.81 l 36.81,92.56 18.49,-44.76 z" />
  <path
     id="path25"
     style="fill:#333333"
     d="m 727.37996,831.28844 h -13.44 v -44.6 q 0,-12.36 -4.28,-18.4 -4.28,-6.04 -12.52,-6 a 21.1,21.1 0 0 0 -7.95,1.61 29.71,29.71 0 0 0 -7.41,4.35 31.42,31.42 0 0 0 -6.1,6.57 28.89,28.89 0 0 0 -4.05,8.4 v 48.11 h -13.44 v -111.5 h 13.44 v 48.88 a 35,35 0 0 1 12.83,-13.59 33.61,33.61 0 0 1 17.72,-4.89 25.13,25.13 0 0 1 11.91,2.59 20.92,20.92 0 0 1 7.79,7 30.9,30.9 0 0 1 4.2,10.62 64.61,64.61 0 0 1 1.3,13.21 z" />
  <path
     id="path27"
     style="fill:#333333"
     d="m 783.58996,832.81844 a 40.61,40.61 0 0 1 -16.5,-3.28 39,39 0 0 1 -12.83,-8.94 40.61,40.61 0 0 1 -8.32,-13.21 43.06,43.06 0 0 1 -3,-16 42.51,42.51 0 0 1 3,-15.89 39.79,39.79 0 0 1 21.3,-22.07 40.61,40.61 0 0 1 16.5,-3.28 38.75,38.75 0 0 1 37,25.28 42.79,42.79 0 0 1 2.83,15.35 c 0,1.12 0,2.14 -0.08,3 a 16.2,16.2 0 0 1 -0.23,2.14 h -66.14 a 31.23,31.23 0 0 0 2.75,10.85 28.1,28.1 0 0 0 6,8.4 27.71,27.71 0 0 0 8.32,5.5 25,25 0 0 0 9.86,2 26.41,26.41 0 0 0 7.18,-1 30.89,30.89 0 0 0 6.56,-2.67 22.8,22.8 0 0 0 5.43,-4.13 17,17 0 0 0 3.59,-5.5 l 11.6,3.21 a 29.4,29.4 0 0 1 -5.42,8.1 36,36 0 0 1 -7.94,6.33 40.47,40.47 0 0 1 -10,4.2 42.47,42.47 0 0 1 -11.46,1.61 z m 27.34,-46.74 a 28.83,28.83 0 0 0 -2.83,-10.46 28,28 0 0 0 -5.95,-8.17 27.31,27.31 0 0 0 -28.49,-5.27 25.8,25.8 0 0 0 -8.32,5.34 27,27 0 0 0 -5.81,8.18 29.8,29.8 0 0 0 -2.67,10.38 z" />
  <path
     id="path29"
     style="fill:#333333"
     d="m 880.72996,763.31844 a 34.58,34.58 0 0 0 -17.79,5.2 26.42,26.42 0 0 0 -10.92,13.59 v 49.18 h -13.45 v -79.73 h 12.53 v 18.44 a 37.66,37.66 0 0 1 10.84,-13.36 27,27 0 0 1 14.36,-5.73 h 2.6 a 9.65,9.65 0 0 1 1.83,0.15 z" />
  <path
     id="path31"
     style="fill:#333333"
     d="m 927.46996,832.81844 a 40.61,40.61 0 0 1 -16.5,-3.28 39.05,39.05 0 0 1 -12.83,-8.94 40.78,40.78 0 0 1 -8.32,-13.21 43.06,43.06 0 0 1 -3,-16 42.51,42.51 0 0 1 3,-15.89 40.26,40.26 0 0 1 8.4,-13.13 39.82,39.82 0 0 1 12.91,-8.94 40.56,40.56 0 0 1 16.49,-3.28 38.71,38.71 0 0 1 37,25.28 42.57,42.57 0 0 1 2.83,15.35 c 0,1.12 0,2.14 -0.08,3 a 14.65,14.65 0 0 1 -0.23,2.14 h -66.12 a 30.79,30.79 0 0 0 2.75,10.85 27.49,27.49 0 0 0 14.28,13.9 24.9,24.9 0 0 0 9.85,2 26.41,26.41 0 0 0 7.18,-1 31.19,31.19 0 0 0 6.57,-2.67 22.94,22.94 0 0 0 5.42,-4.13 16.87,16.87 0 0 0 3.59,-5.5 l 11.61,3.21 a 29.44,29.44 0 0 1 -5.43,8.1 36,36 0 0 1 -7.94,6.33 40.4,40.4 0 0 1 -10,4.2 42.6,42.6 0 0 1 -11.43,1.61 z m 27.34,-46.74 a 28.82,28.82 0 0 0 -2.82,-10.46 28,28 0 0 0 -6,-8.17 27.31,27.31 0 0 0 -28.49,-5.27 25.91,25.91 0 0 0 -8.32,5.34 27,27 0 0 0 -5.81,8.18 30.25,30.25 0 0 0 -2.67,10.38 z" />
  <path
     id="path33"
     style="fill:url(#linearGradient867)"
     d="m 685.19996,489.29844 h -98.78 l -48.54,-73.41 a 7.94,7.94 0 0 0 -0.48,-7.95 l -30.73,-46.49 a 8.05,8.05 0 0 0 -0.49,-0.66 v 0 c -0.17,-0.2 -0.34,-0.39 -0.52,-0.58 a 8.28,8.28 0 0 0 -1.93,-1.42 l -0.26,-0.12 -0.43,-0.2 -0.47,-0.16 a 1.84,1.84 0 0 0 -0.25,-0.09 l -0.54,-0.14 -0.2,-0.05 -0.56,-0.03 h -0.24 -0.47 -0.29 -0.4 -0.38 -0.33 l -0.44,0.07 -0.3,0.07 c -0.15,0 -0.3,0.07 -0.45,0.12 l -0.34,0.11 -0.38,0.14 c -0.18,0.07 -0.35,0.16 -0.52,0.24 l -0.17,0.08 a 7.91,7.91 0 0 0 -1.94,1.43 6,6 0 0 0 -0.42,0.46 l -0.1,0.11 a 7.37,7.37 0 0 0 -0.48,0.66 l -30.74,46.49 a 7.94,7.94 0 0 0 -0.48,7.95 l -48.53,73.37 h -98.78 a 4,4 0 1 0 0,8 h 13.53 l 43.06,174.7 a 4,4 0 0 0 3.87,3 h 249.44 a 4,4 0 0 0 3.87,-3 l 43.06,-174.75 h 13.53 a 4,4 0 0 0 0,-8 z m -48,114.36 h -64.38 l 7.05,-50.43 h 69.75 z m -72.42,0 h -60.76 v -50.43 h 67.88 z m -214.47,-50.43 h 69.81 l 7,50.43 h -64.33 z m 77.8,0 h 67.91 v 50.43 h -60.81 z m 67.88,-8 h -68.97 l -6.71,-48 h 75.71 z m 8,0 v -48 h 75.71 l -6.72,48 z m -35.19,-125 h 0.46 a 8,8 0 0 0 6.65,-3.57 l 24.1,-36.45 24.1,36.45 a 8,8 0 0 0 6.65,3.57 h 0.46 l 45.65,69 h -153.71 z m -56.52,77 6.71,48 h -70.6 l -11.83,-48 z m -47.54,114.37 h 63.53 l 7.75,55.44 h -57.6 z m 79.32,55.44 -7.75,-55.44 h 59.71 v 55.44 z m 59.93,-55.44 h 59.72 l -7.75,55.44 h -52 z m 117.62,55.44 h -57.59 l 7.75,-55.44 h 63.53 z m 30,-121.8 h -70.59 l 6.71,-48 h 75.72 z" />
  <path
     id="path35"
     style="fill:url(#linear-gradient-2)"
     d="m 500.01996,270.22844 a 32.88,32.88 0 1 1 32.88,-32.87 32.91,32.91 0 0 1 -32.88,32.87 z m 0,-59.67 a 26.8,26.8 0 1 0 26.8,26.8 26.83,26.83 0 0 0 -26.8,-26.8 z" />
  <path
     id="path37"
     style="fill:url(#linear-gradient-3)"
     d="m 500.01996,376.11844 a 6.09,6.09 0 0 1 -5.08,-2.73 c -0.16,-0.25 -16.33,-24.84 -32.28,-53.45 -21.78,-39.07 -32.82,-66.85 -32.82,-82.58 a 70.18,70.18 0 0 1 140.36,0 c 0,15.73 -11,43.51 -32.82,82.58 -15.95,28.61 -32.12,53.2 -32.28,53.45 a 6.09,6.09 0 0 1 -5.08,2.73 z m 0,-196.78 a 58.08,58.08 0 0 0 -58,58 c 0,25.18 38.08,90.18 58,121.49 19.94,-31.31 58,-96.32 58,-121.49 a 58.08,58.08 0 0 0 -58,-58 z" />
</svg>
