<svg id="Layer_1" data-name="Layer 1" xmlns="http://www.w3.org/2000/svg" xmlns:xlink="http://www.w3.org/1999/xlink" viewBox="0 0 2000 2000"><defs><linearGradient id="linear-gradient" x1="281.53" y1="1366.82" x2="1694.78" y2="1366.82" gradientUnits="userSpaceOnUse"><stop offset="0" stop-color="#8cc63f"/><stop offset="1" stop-color="#006837"/></linearGradient><linearGradient id="linear-gradient-2" x1="281.53" y1="293.11" x2="1694.78" y2="293.11" xlink:href="#linear-gradient"/><linearGradient id="linear-gradient-3" x1="281.53" y1="425.04" x2="1694.78" y2="425.04" xlink:href="#linear-gradient"/></defs><title>WhatsWhere_SK</title><path d="M1728.33,1262.33h-380L1161.62,979.91a30.6,30.6,0,0,0-1.84-30.56L1041.53,770.5a30.56,30.56,0,0,0-1.87-2.53v0c-.63-.76-1.3-1.5-2-2.21a30.82,30.82,0,0,0-7.42-5.46c-.33-.17-.66-.31-1-.47-.56-.26-1.11-.54-1.68-.77s-1.18-.43-1.77-.64c-.33-.11-.65-.24-1-.34-.68-.2-1.37-.36-2.06-.52l-.8-.19c-.67-.13-1.35-.22-2-.31-.31,0-.61-.1-.92-.13-.61-.06-1.21-.08-1.82-.1-.4,0-.79,0-1.19,0s-1,0-1.53.06-1,0-1.48.09-.84.11-1.26.17c-.57.08-1.13.15-1.69.26-.39.08-.77.18-1.15.27-.58.14-1.16.27-1.73.44s-.87.3-1.31.46-1,.32-1.45.52c-.69.28-1.36.6-2,.93l-.65.31a30.55,30.55,0,0,0-7.44,5.48c-.58.57-1.11,1.18-1.63,1.79-.12.15-.26.28-.38.43a28.33,28.33,0,0,0-1.86,2.53L872.14,949.35a30.6,30.6,0,0,0-1.84,30.56L683.56,1262.33h-380a15.32,15.32,0,1,0,0,30.64h52l165.65,672.25a15.33,15.33,0,0,0,14.88,11.65h959.62a15.33,15.33,0,0,0,14.88-11.65L1676.3,1293h52a15.32,15.32,0,1,0,0-30.64Zm-184.45,440H1296.23l27.12-194h268.33Zm-278.59,0h-234v-194h261.13Zm-825.06-194H708.57l27.12,194H488Zm299.28,0h261.13v194h-234Zm261.13-30.64H735.22L709.4,1293h291.24Zm30.64,0V1293h291.24l-25.82,184.69ZM895.89,996.76c.6,0,1.19.13,1.78.13a30.62,30.62,0,0,0,25.59-13.74L1016,843l92.7,140.2a30.63,30.63,0,0,0,25.59,13.74c.59,0,1.19-.09,1.78-.13l175.6,265.57H720.29ZM678.46,1293l25.82,184.69H432.68L387.17,1293Zm-182.87,440H740l29.82,213.3H548.15Zm305.14,213.3-29.82-213.3h229.73v213.3Zm230.55-213.3H1261l-29.82,213.3H1031.28Zm452.49,213.3H1262.13l29.82-213.3h244.38Zm115.47-468.57h-271.6L1353.46,1293h291.29Z" style="fill:url(#linear-gradient)"/><path d="M1016,419.59a126.49,126.49,0,1,1,126.48-126.48A126.62,126.62,0,0,1,1016,419.59ZM1016,190a103.1,103.1,0,1,0,103.09,103.1A103.21,103.21,0,0,0,1016,190Z" style="fill:url(#linear-gradient-2)"/><path d="M1016,827a23.39,23.39,0,0,1-19.53-10.52c-.62-.94-62.83-95.56-124.19-205.64C788.46,460.5,746,353.62,746,293.11c0-148.87,121.11-270,270-270s270,121.11,270,270c0,60.51-42.48,167.39-126.25,317.68-61.36,110.08-123.58,204.7-124.2,205.64A23.38,23.38,0,0,1,1016,827Zm0-757.05c-123.07,0-223.2,100.13-223.2,223.21,0,96.89,146.5,346.94,223.2,467.39,76.7-120.46,223.2-370.54,223.2-467.39C1239.16,170,1139,69.9,1016,69.9Z" style="fill:url(#linear-gradient-3)"/></svg>